Coordinates
version=1
nRows=9
nColumns=24
inDegrees=yes

Units are S.I. units (second, meters, Newtons, ...)
Angles are in degrees.

endheader
time	pelvis_tilt	pelvis_list	pelvis_rotation	pelvis_tx	pelvis_ty	pelvis_tz	hip_flexion_r	hip_adduction_r	hip_rotation_r	knee_angle_r	ankle_angle_r	subtalar_angle_r	mtp_angle_r	hip_flexion_l	hip_adduction_l	hip_rotation_l	knee_angle_l	ankle_angle_l	subtalar_angle_l	mtp_angle_l	lumbar_extension	lumbar_bending	lumbar_rotation
      1.12100000	     -1.18422623	      3.58425580	     -7.62988917	     -0.12675870	      0.99531972	      0.33204528	    -13.53092107	     -1.76395867	      1.77438962	    -10.47485375	     14.51559322	     -3.91251151	      4.66585568	     21.85055065	      3.79777306	    -11.45558510	      4.51460508	      0.52503427	     -9.81623419	      9.03302755	     -2.71712182	     -3.46497156	     15.51409151
      1.12516667	     -1.14132052	      3.68684555	     -7.68540126	     -0.12072975	      0.99483780	      0.33193988	    -13.67076495	     -1.95910258	      1.70604028	    -10.98744653	     14.51110209	     -3.70410995	      4.76104650	     21.86313399	      3.96146756	    -11.28290041	      4.12062681	      0.44101718	    -10.19177521	      9.01654988	     -2.70539162	     -3.61174176	     15.61149675
      1.12933333	     -1.10694138	      3.78921518	     -7.74856633	     -0.11468832	      0.99437704	      0.33183121	    -13.77633926	     -2.15798491	      1.61824753	    -11.54523123	     14.50468035	     -3.44487873	      4.91670659	     21.88044514	      4.12053761	    -11.04974289	      3.68513405	      0.25185068	    -10.65711323	      9.01009075	     -2.68906936	     -3.73602615	     15.73525018
      1.13350000	     -1.06517171	      3.91963698	     -7.81010300	     -0.10858505	      0.99394859	      0.33174512	    -13.88627417	     -2.38330726	      1.56432150	    -12.10965776	     14.47279144	     -3.25495190	      5.06328218	     21.88978386	      4.30651375	    -10.79258078	      3.20032281	      0.10648474	    -11.08124988	      9.02026011	     -2.66170630	     -3.92951287	     15.83813959
      1.13766667	     -1.05289029	      4.05600647	     -7.87924455	     -0.10245470	      0.99352126	      0.33165895	    -13.93523941	     -2.61561523	      1.49859608	    -12.72566913	     14.40078409	     -3.04837054	      5.22610321	     21.92945074	      4.49077490	    -10.52173666	      2.68103426	     -0.13603951	    -11.54909247	      9.04184893	     -2.59857551	     -4.11066274	     15.94958948
      1.14183333	     -1.01045867	      4.19668741	     -7.94388200	     -0.09631281	      0.99315984	      0.33155875	    -14.00193865	     -2.85666835	      1.42314264	    -13.36734063	     14.31262196	     -2.82494431	      5.42316647	     21.93090804	      4.68683156	    -10.20545820	      2.14516964	     -0.43815822	    -12.06311407	      9.07806995	     -2.57602033	     -4.29712487	     16.06345054
      1.14600000	     -0.91431733	      4.32285099	     -7.99249475	     -0.09014750	      0.99290934	      0.33143752	    -14.13624393	     -3.08304095	      1.35611531	    -13.98876965	     14.13756023	     -2.67997402	      6.22821774	     21.85084645	      4.88964412	     -9.75855707	      1.63060779	     -0.86142016	    -12.80774512	      9.26079882	     -2.62118622	     -4.46755070	     16.13834384
      1.15016667	     -0.92497157	      4.48406781	     -8.06494676	     -0.08395346	      0.99253240	      0.33131747	    -14.07599904	     -3.34981342	      1.24209072	    -14.76046730	     14.02709331	     -2.37775468	      6.66165535	     21.92058256	      5.09177361	     -9.47069100	      1.02069776	     -1.19841122	    -13.25108987	      9.36689436	     -2.51684049	     -4.66771016	     16.29021151
      1.15433333	     -0.90886687	      4.65124609	     -8.15541250	     -0.07773499	      0.99223932	      0.33122207	    -14.02702999	     -3.62774184	      1.17624400	    -15.55508026	     13.85655299	     -2.15331104	      6.96061313	     21.93512024	      5.30082741	     -9.19008539	      0.45825385	     -1.68016749	    -13.73528737	      9.44136396	     -2.43945925	     -4.87562233	     16.37962759
